<svg width="26" height="26" viewBox="0 0 26 26" fill="none" xmlns="http://www.w3.org/2000/svg">
<g clip-path="url(#clip0_0_65)">
<path d="M13 16.4667C14.9146 16.4667 16.4667 14.9146 16.4667 13C16.4667 11.0854 14.9146 9.53334 13 9.53334C11.0854 9.53334 9.53333 11.0854 9.53333 13C9.53333 14.9146 11.0854 16.4667 13 16.4667Z" fill="white"/>
<path d="M9.75 2.16667L7.7675 4.33334H4.33333C3.14166 4.33334 2.16666 5.30834 2.16666 6.50001V19.5C2.16666 20.6917 3.14166 21.6667 4.33333 21.6667H21.6667C22.8583 21.6667 23.8333 20.6917 23.8333 19.5V6.50001C23.8333 5.30834 22.8583 4.33334 21.6667 4.33334H18.2325L16.25 2.16667H9.75ZM13 18.4167C10.01 18.4167 7.58333 15.99 7.58333 13C7.58333 10.01 10.01 7.58334 13 7.58334C15.99 7.58334 18.4167 10.01 18.4167 13C18.4167 15.99 15.99 18.4167 13 18.4167Z" fill="white"/>
</g>
<defs>
<clipPath id="clip0_0_65">
<rect width="26" height="26" fill="white"/>
</clipPath>
</defs>
</svg>
